<?xml version="1.0" standalone="no"?>
<!DOCTYPE svg PUBLIC "-//W3C//DTD SVG 20010904//EN"
 "http://www.w3.org/TR/2001/REC-SVG-20010904/DTD/svg10.dtd">
<svg version="1.0" xmlns="http://www.w3.org/2000/svg"
 width="196.000000pt" height="196.000000pt" viewBox="0 0 196.000000 196.000000"
 preserveAspectRatio="xMidYMid meet">
<metadata>
Created by potrace 1.11, written by Peter Selinger 2001-2013
</metadata>
<g transform="translate(0.000000,196.000000) scale(0.100000,-0.100000)"
fill="#000000" stroke="none">
<path d="M980 1383 l0 -571 -40 19 c-104 50 -248 51 -355 0 -231 -108 -321
-378 -199 -601 178 -327 656 -286 787 68 20 55 21 73 23 635 0 317 4 580 7
583 3 4 101 6 217 6 l210 -1 0 217 0 217 -325 0 -325 0 0 -572z"/>
</g>
</svg>
